Coordinates
version=1
nRows=11
nColumns=40
inDegrees=yes

Units are S.I. units (second, meters, Newtons, ...)
Angles are in degrees.

endheader
time	pelvis_tilt	pelvis_list	pelvis_rotation	pelvis_tx	pelvis_ty	pelvis_tz	hip_flexion_r	hip_adduction_r	hip_rotation_r	knee_angle_r	knee_angle_r_beta	ankle_angle_r	subtalar_angle_r	mtp_angle_r	hip_flexion_l	hip_adduction_l	hip_rotation_l	knee_angle_l	knee_angle_l_beta	ankle_angle_l	subtalar_angle_l	mtp_angle_l	lumbar_extension	lumbar_bending	lumbar_rotation	arm_flex_r	arm_add_r	arm_rot_r	elbow_flex_r	pro_sup_r	wrist_flex_r	wrist_dev_r	arm_flex_l	arm_add_l	arm_rot_l	elbow_flex_l	pro_sup_l	wrist_flex_l	wrist_dev_l
     22.89500000	     -5.70827577	     -4.91271113	      0.99603947	      0.91009935	      0.91629575	      0.46282146	     -4.14222895	      0.38931554	    -17.02549410	     19.25110722	     19.25110722	     15.55965995	     -4.73751515	     -4.42070235	     28.38190379	     -5.47864692	      2.24895810	     30.52344463	     30.52344463	     10.80190609	    -14.86544524	      6.30792603	     -8.03849660	      1.70618026	      5.28407959	     44.05442091	    -10.36566779	     -0.12525460	     94.73098918	     44.26059807	      0.00000000	      0.00000000	     -6.26205624	    -10.07150975	     -4.87400571	     38.76542715	     45.40034220	      0.00000000	      0.00000000
     22.91342857	     -5.77965697	     -4.91640767	      0.90774785	      0.91195120	      0.91799418	      0.45930334	     -4.07001023	      0.00716590	    -17.00770895	     19.98967124	     19.98967124	     14.53899557	     -5.29029827	     -4.97393332	     27.59965884	     -5.30616147	      1.98690858	     29.95482726	     29.95482726	     11.08762007	    -14.67886333	      6.34780111	     -7.90656516	      1.70933075	      5.30629310	     43.64535443	    -10.52354005	      0.39111716	     93.33647861	     44.29810438	      0.00000000	      0.00000000	     -5.25001197	    -10.47613736	     -5.26270245	     39.83260196	     45.47493930	      0.00000000	      0.00000000
     22.93185714	     -5.82949491	     -5.08399134	      0.92896965	      0.91373597	      0.91964476	      0.45579788	     -4.09689517	     -0.17268384	    -17.13456133	     20.58754101	     20.58754101	     13.60188020	     -5.55142121	     -5.16791332	     26.86759966	     -5.23834409	      2.00706662	     29.46469852	     29.46469852	     11.38045654	    -14.51584507	      6.34996992	     -7.80905105	      1.90928436	      5.17247832	     43.02259778	    -10.45872652	      0.73976056	     92.44280465	     44.31770145	      0.00000000	      0.00000000	     -4.12565307	    -10.90572829	     -5.46038597	     40.56685360	     45.52014206	      0.00000000	      0.00000000
     22.95028571	     -5.88289444	     -4.96506974	      0.80510813	      0.91544733	      0.92132633	      0.45221916	     -4.02393284	     -0.70459053	    -17.02658397	     21.32283982	     21.32283982	     12.41909195	     -6.16654156	     -6.06424293	     25.95774753	     -4.92590896	      1.70387133	     28.69749692	     28.69749692	     11.57886546	    -14.40763560	      6.46529707	     -7.62072635	      1.83090281	      5.31840381	     42.46901585	    -10.97041909	      1.19719546	     90.03861710	     44.38960174	      0.00000000	      0.00000000	     -3.12254792	    -11.28642254	     -5.76791742	     41.75658955	     45.58551992	      0.00000000	      0.00000000
     22.96871429	     -5.93744935	     -5.06618958	      0.76726190	      0.91705531	      0.92276635	      0.44869188	     -4.13951227	     -0.92614721	    -17.03673748	     21.55041326	     21.55041326	      9.99980515	     -7.31794243	    -10.01677151	     25.21881611	     -4.78119566	      1.70636880	     28.18834637	     28.18834637	     11.74997089	    -14.44698467	      6.53470699	     -7.40371687	      2.03628317	      3.99799911	     42.90800519	     -9.99745630	      2.67963019	     85.39572518	     44.54229575	      0.00000000	      0.00000000	     -3.26643436	    -11.87486445	     -6.30515691	     43.63932834	     45.71223281	      0.00000000	      0.00000000
     22.98714286	     -5.93262843	     -5.05794509	      0.66416834	      0.91870904	      0.92431504	      0.44517598	     -4.09015369	     -1.37819897	    -17.09414217	     22.36981700	     22.36981700	      9.03005714	     -7.59112968	    -10.13999810	     24.33465729	     -4.58050612	      1.48242138	     27.56707703	     27.56707703	     11.95478351	    -14.29588126	      6.61349992	     -7.34518596	      2.15494248	      4.12308322	     41.59316132	    -10.36038698	      2.79863825	     84.13983127	     44.57984361	      0.00000000	      0.00000000	     -2.10400926	    -12.16904269	     -6.45715640	     44.30005083	     45.75309668	      0.00000000	      0.00000000
     23.00557143	     -5.94263929	     -5.04074673	      0.52430684	      0.92015682	      0.92563846	      0.44176707	     -3.85598334	     -1.87547482	    -17.06575306	     23.47863482	     23.47863482	      8.03170782	     -8.04490323	    -10.41946010	     23.49223565	     -4.37273446	      1.26128262	     26.97724022	     26.97724022	     12.15391140	    -14.23566035	      6.71634173	     -7.21840032	      2.25784646	      4.36203365	     40.34917563	    -10.83426760	      2.81396349	     82.03674745	     44.64991292	      0.00000000	      0.00000000	     -0.86896102	    -12.44905475	     -6.45651255	     44.95288858	     45.78086721	      0.00000000	      0.00000000
     23.02400000	     -5.95600044	     -5.03770373	      0.32086755	      0.92139482	      0.92668200	      0.43848853	     -3.40581212	     -2.40474181	    -16.92896710	     24.92939049	     24.92939049	      6.97483125	     -8.70936112	    -10.79983763	     22.71385653	     -4.18896335	      1.07822344	     26.49488588	     26.49488588	     12.42889455	    -14.20940951	      6.79070018	     -7.08623368	      2.36350150	      4.47503493	     39.19315581	    -11.10052756	      2.77254874	     79.19855998	     44.74785014	      0.00000000	      0.00000000	      0.34111230	    -12.75422635	     -6.20352689	     45.46612587	     45.78519730	      0.00000000	      0.00000000
     23.04242857	     -5.93725997	     -5.11794472	      0.15714301	      0.92242284	      0.92746069	      0.43526688	     -2.86866903	     -2.81427394	    -16.72309066	     26.54245910	     26.54245910	      5.81098372	     -9.84831818	    -11.38202076	     22.08546698	     -4.09360063	      0.91966558	     26.30443060	     26.30443060	     12.75692995	    -14.23617407	      6.91853397	     -6.94949551	      2.70785001	      4.07660118	     38.57645555	    -10.51984342	      2.64205384	     74.32334283	     44.92777804	      0.00000000	      0.00000000	      1.32566373	    -13.32635961	     -5.12550542	     45.61793943	     45.72523686	      0.00000000	      0.00000000
     23.06085714	     -5.81837936	     -4.97254468	     -0.11579278	      0.92332483	      0.92804921	      0.43214598	     -2.08432419	     -3.61852023	    -16.56543698	     28.82287196	     28.82287196	      4.99459396	    -10.70486895	    -11.48644531	     21.26402923	     -3.82137951	      0.49289757	     25.98930063	     25.98930063	     13.14861295	    -14.06339962	      6.88212879	     -7.07343616	      2.73612129	      4.04452561	     36.99149333	    -10.69187482	      2.73460922	     72.24244034	     44.99146645	      0.00000000	      0.00000000	      2.44029678	    -13.65169180	     -4.92102110	     46.15226007	     45.73245236	      0.00000000	      0.00000000
     23.07928571	     -5.78672837	     -4.91668856	     -0.43965358	      0.92382622	      0.92804375	      0.42917140	     -0.87940214	     -4.29573165	    -16.08486388	     31.55208536	     31.55208536	      4.24081016	    -12.11149637	    -11.11260791	     20.75659672	     -3.63540319	      0.19523714	     26.04193133	     26.04193133	     13.64626745	    -14.03171581	      6.82251221	     -7.03172192	      2.92553627	      4.10029712	     35.68748862	    -10.78796375	      2.60945387	     68.37112770	     45.12687160	      0.00000000	      0.00000000	      3.72738665	    -13.98343885	     -4.11897953	     46.49720239	     45.69336412	      0.00000000	      0.00000000
